<?xml version="1.0" standalone="no"?><!DOCTYPE svg PUBLIC "-//W3C//DTD SVG 1.1//EN" "http://www.w3.org/Graphics/SVG/1.1/DTD/svg11.dtd"><svg class="icon" height="512" viewBox="0 0 1024 1024" version="1.1" xmlns="http://www.w3.org/2000/svg"><path d="M512 124.989c-213.743 0-387.011 173.268-387.011 387.011s173.268 387.011 387.011 387.011 387.011-173.268 387.011-387.011-173.268-387.011-387.011-387.011z" fill="#158EE1" /><path d="M385.659 423.916c0 72.659 53.833 131.565 120.234 131.565 66.413 0 120.239-58.907 120.239-131.565s-53.825-131.562-120.239-131.562c-66.401 0.005-120.234 58.902-120.234 131.562zM719.641 731.641c-23.307-117.268-60.023-155.506-86.617-166.034-13.096-5.188-28.034-3.88-40.207 3.185-60.508 35.081-125.234 14.302-153.172 2.096-14.745-6.439-31.518-6.747-46.298-0.412-2.492 1.068-3.912 1.826-3.912 1.826s-65.191 25.162-85.073 159.343z" fill="#FFFFFF" /></svg>